<svg width="24" height="24" viewBox="0 0 24 24" fill="none" xmlns="http://www.w3.org/2000/svg">
<path d="M13.0004 7.20039C13.0004 6.64811 12.5527 6.20039 12.0004 6.20039C11.4481 6.20039 11.0004 6.64811 11.0004 7.20039L13.0004 7.20039ZM11.0004 16.8004C11.0004 17.3527 11.4481 17.8004 12.0004 17.8004C12.5527 17.8004 13.0004 17.3527 13.0004 16.8004H11.0004ZM16.8004 13.0004C17.3527 13.0004 17.8004 12.5527 17.8004 12.0004C17.8004 11.4481 17.3527 11.0004 16.8004 11.0004V13.0004ZM7.20039 11.0004C6.64811 11.0004 6.20039 11.4481 6.20039 12.0004C6.20039 12.5527 6.64811 13.0004 7.20039 13.0004V11.0004ZM20.6004 12.0004C20.6004 16.75 16.75 20.6004 12.0004 20.6004V22.6004C17.8546 22.6004 22.6004 17.8546 22.6004 12.0004H20.6004ZM12.0004 20.6004C7.25074 20.6004 3.40039 16.75 3.40039 12.0004H1.40039C1.40039 17.8546 6.14617 22.6004 12.0004 22.6004V20.6004ZM3.40039 12.0004C3.40039 7.25074 7.25074 3.40039 12.0004 3.40039V1.40039C6.14617 1.40039 1.40039 6.14617 1.40039 12.0004H3.40039ZM12.0004 3.40039C16.75 3.40039 20.6004 7.25074 20.6004 12.0004H22.6004C22.6004 6.14617 17.8546 1.40039 12.0004 1.40039V3.40039ZM11.0004 7.20039L11.0004 12.0004H13.0004L13.0004 7.20039L11.0004 7.20039ZM11.0004 12.0004V16.8004H13.0004V12.0004H11.0004ZM16.8004 11.0004H12.0004V13.0004H16.8004V11.0004ZM12.0004 11.0004H7.20039V13.0004H12.0004V11.0004Z" fill="#3F50BA"/>
</svg>
