<svg width="1425" height="1425" viewBox="0 0 1425 1425" fill="none" xmlns="http://www.w3.org/2000/svg">
<rect width="1425" height="1425" rx="204.844" fill="white"/>
<path d="M709.455 1300.43C559.385 1300.43 444.332 1264.31 364.295 1192.05C285.369 1119.79 245.906 1014.19 245.906 875.236V521.739C245.906 382.785 285.369 277.181 364.295 204.925C444.332 132.669 559.385 96.541 709.455 96.541C860.637 96.541 975.69 132.669 1054.62 204.925C1134.65 277.181 1174.67 382.785 1174.67 521.739V875.236C1174.67 1014.19 1134.65 1119.79 1054.62 1192.05C975.69 1264.31 860.637 1300.43 709.455 1300.43ZM709.455 1175.38C808.39 1175.38 883.981 1149.81 936.227 1098.67C989.585 1046.43 1016.26 971.948 1016.26 875.236V521.739C1016.26 425.027 989.585 351.104 936.227 299.969C883.981 247.722 808.39 221.599 709.455 221.599C611.632 221.599 536.041 247.722 482.683 299.969C430.436 351.104 404.313 425.027 404.313 521.739V875.236C404.313 971.948 430.436 1046.43 482.683 1098.67C536.041 1149.81 611.632 1175.38 709.455 1175.38Z" fill="#07006F"/>
<path d="M869.682 482.349C880.388 482.349 889.594 485.989 897.302 493.269C905.438 500.12 909.506 508.898 909.506 519.603C909.506 525.17 908.221 530.951 905.652 536.946L747.001 908.2C743.148 916.764 737.581 923.187 730.301 927.47C723.45 931.323 716.385 933.25 709.105 933.25C702.254 932.822 695.617 930.681 689.194 926.827C682.771 922.545 677.846 916.55 674.42 908.843L515.77 536.303C514.486 533.734 513.629 531.165 513.201 528.596C512.773 525.598 512.559 522.815 512.559 520.246C512.559 507.828 517.055 498.407 526.047 491.984C535.039 485.133 543.604 481.707 551.739 481.707C568.011 481.707 579.787 490.057 587.066 506.757L727.732 837.546L705.251 838.189L834.355 506.757C841.635 490.485 853.411 482.349 869.682 482.349Z" fill="#07006F"/>
</svg>
