<svg width="157" height="16" viewBox="0 0 157 16" fill="none" xmlns="http://www.w3.org/2000/svg">
<path d="M6.98342 16C6.37937 16 5.87108 15.8969 5.45856 15.6906C5.06077 15.4843 4.70718 15.1381 4.39779 14.6519C4.10313 14.151 3.83057 13.4659 3.58011 12.5967L0 0.265193H3.11602L6.49723 12.5525C6.60036 12.9355 6.76243 13.1271 6.98342 13.1271C7.20442 13.1271 7.36648 12.9355 7.46961 12.5525L10.8508 0.265193H13.9668L10.3867 12.5967C10.1363 13.4659 9.85635 14.151 9.54696 14.6519C9.2523 15.1381 8.89871 15.4843 8.48618 15.6906C8.08839 15.8969 7.58747 16 6.98342 16Z" fill="#07006F"/>
<path d="M21.2729 16C19.2251 16 17.656 15.5285 16.5658 14.5856C15.4903 13.628 14.9525 12.221 14.9525 10.3646V5.63536C14.9525 3.77901 15.4903 2.37937 16.5658 1.43646C17.656 0.478821 19.2251 0 21.2729 0C23.3208 0 24.8825 0.478821 25.958 1.43646C27.0483 2.37937 27.5934 3.77901 27.5934 5.63536V10.3646C27.5934 12.221 27.0483 13.628 25.958 14.5856C24.8825 15.5285 23.3208 16 21.2729 16ZM21.2729 13.5691C22.3043 13.5691 23.0925 13.2965 23.6376 12.7514C24.1974 12.1915 24.4774 11.3959 24.4774 10.3646V5.63536C24.4774 4.60405 24.1974 3.81584 23.6376 3.27072C23.0925 2.71086 22.3043 2.43094 21.2729 2.43094C20.2416 2.43094 19.4461 2.71086 18.8862 3.27072C18.3411 3.81584 18.0685 4.60405 18.0685 5.63536V10.3646C18.0685 11.3959 18.3411 12.1915 18.8862 12.7514C19.4461 13.2965 20.2416 13.5691 21.2729 13.5691Z" fill="#07006F"/>
<path d="M32.9989 9.10497L27.9161 0.265193H31.3857L34.6343 6.25414L37.8166 0.265193H41.3083L36.115 9.10497V15.7348H32.9989V9.10497Z" fill="#07006F"/>
<path d="M49.3156 12.1326H43.2603L42.2217 15.7348H39.1056L42.8846 3.40331C43.1498 2.51934 43.4298 1.83425 43.7244 1.34807C44.0191 0.861878 44.3653 0.515654 44.7631 0.309392C45.1756 0.103131 45.6839 0 46.288 0C46.892 0 47.3929 0.103131 47.7907 0.309392C48.1885 0.515654 48.5347 0.861878 48.8294 1.34807C49.1388 1.83425 49.4261 2.51934 49.6913 3.40331L53.4703 15.7348H50.3542L49.3156 12.1326ZM48.6305 9.81215L46.7741 3.44751C46.671 3.06446 46.5089 2.87293 46.288 2.87293C46.067 2.87293 45.9049 3.06446 45.8018 3.44751L43.9454 9.81215H48.6305Z" fill="#07006F"/>
<path d="M60.8575 16C58.7507 16 57.1375 15.5285 56.0177 14.5856C54.9128 13.628 54.3603 12.221 54.3603 10.3646V5.63536C54.3603 3.77901 54.9128 2.37937 56.0177 1.43646C57.1375 0.478821 58.7507 0 60.8575 0C62.375 0 63.6126 0.243094 64.5702 0.729282C65.5426 1.21547 66.3087 1.93738 66.8686 2.89503L64.5039 4.50829C64.0472 3.77164 63.561 3.24125 63.0454 2.91713C62.5297 2.593 61.8004 2.43094 60.8575 2.43094C59.6789 2.43094 58.817 2.7035 58.2719 3.24862C57.7415 3.779 57.4763 4.57458 57.4763 5.63536V10.3646C57.4763 11.4254 57.7415 12.2284 58.2719 12.7735C58.817 13.3039 59.6789 13.5691 60.8575 13.5691C61.8888 13.5691 62.6697 13.3996 63.2001 13.0608C63.7452 12.7072 64.0177 12.1989 64.0177 11.5359V10.8508C64.0177 9.93738 63.5979 9.48066 62.7581 9.48066H60.2387V7.04972H63.6421C64.8207 7.04972 65.6899 7.32228 66.2498 7.8674C66.8096 8.41252 67.0896 9.25967 67.0896 10.4088V11.7569C67.0896 13.0829 66.5297 14.1215 65.41 14.8729C64.2903 15.6243 62.7728 16 60.8575 16Z" fill="#07006F"/>
<path d="M74.7101 15.7348C72.7506 15.7348 71.3436 15.3223 70.4891 14.4972C69.6346 13.6722 69.2073 12.4788 69.2073 10.9171V5.08287C69.2073 3.52118 69.6346 2.32781 70.4891 1.50276C71.3436 0.677716 72.7506 0.265193 74.7101 0.265193H79.8813V2.69613H74.7101C73.8998 2.69613 73.2957 2.88766 72.8979 3.27072C72.5149 3.65377 72.3233 4.25783 72.3233 5.08287V6.78453H78.909V9.21547H72.3233V10.9171C72.3233 11.7274 72.5149 12.3315 72.8979 12.7293C73.2957 13.1123 73.8998 13.3039 74.7101 13.3039H79.9255V15.7348H74.7101Z" fill="#07006F"/>
<path d="M90.1082 15.9779C88.8117 15.9779 87.7214 15.779 86.8375 15.3812C85.9682 14.9687 85.18 14.2983 84.4728 13.3702L85.2684 12.663C85.9019 13.5175 86.5723 14.1215 87.2794 14.4751C88.0014 14.8287 88.9295 15.0055 90.064 15.0055C91.5373 15.0055 92.6791 14.7109 93.4894 14.1215C94.3144 13.5322 94.727 12.7145 94.727 11.6685C94.727 11.035 94.5723 10.5267 94.2629 10.1436C93.9682 9.76059 93.4526 9.4291 92.7159 9.14917C91.9793 8.86924 90.9038 8.59668 89.4894 8.33149C87.913 8.0221 86.7638 7.54328 86.0419 6.89503C85.32 6.23204 84.959 5.33333 84.959 4.19889C84.959 3.35912 85.1726 2.62247 85.5999 1.98895C86.0271 1.35543 86.6386 0.869245 87.4342 0.530386C88.2297 0.191528 89.1505 0.0220992 90.1966 0.0220992C91.4194 0.0220992 92.4655 0.228361 93.3347 0.640884C94.2187 1.05341 94.9038 1.66482 95.3899 2.47514L94.5723 3.11602C94.145 2.42357 93.5557 1.89319 92.8043 1.52486C92.0677 1.15654 91.1911 0.972375 90.1745 0.972375C88.9664 0.972375 87.9866 1.26703 87.2353 1.85635C86.4839 2.44567 86.1082 3.21915 86.1082 4.1768C86.1082 5.03131 86.4323 5.71639 87.0806 6.23204C87.7435 6.73296 88.8117 7.12339 90.285 7.40331C91.7288 7.68324 92.8485 8 93.6441 8.35359C94.4397 8.69245 95.0069 9.12707 95.3457 9.65746C95.6993 10.1731 95.8761 10.8435 95.8761 11.6685C95.8761 13.0534 95.3752 14.1215 94.3734 14.8729C93.3863 15.6096 91.9645 15.9779 90.1082 15.9779Z" fill="#07006F"/>
<path d="M103.374 15.7348C101.694 15.7348 100.45 15.3591 99.6393 14.6077C98.8289 13.8564 98.4238 12.7072 98.4238 11.1602V4.81768C98.4238 3.27072 98.8289 2.12891 99.6393 1.39226C100.45 0.640883 101.694 0.265193 103.374 0.265193H108.744V1.21547H103.374C102.063 1.21547 101.098 1.51013 100.479 2.09945C99.875 2.67403 99.573 3.58011 99.573 4.81768V7.51381H107.573V8.46409H99.573V11.1602C99.573 12.3978 99.8823 13.3112 100.501 13.9006C101.12 14.4899 102.078 14.7845 103.374 14.7845H108.899V15.7348H103.374Z" fill="#07006F"/>
<path d="M123.46 15.7348H122.245L121.162 11.5801C120.955 10.7993 120.712 10.1952 120.432 9.76795C120.167 9.3407 119.784 9.02394 119.283 8.81768C118.782 8.61142 118.097 8.50829 117.228 8.50829H113.272V15.7348H112.123V0.265193H118.863C120.027 0.265193 121 0.611417 121.78 1.30387C122.576 1.98158 122.974 2.99079 122.974 4.33149C122.974 5.42173 122.694 6.29834 122.134 6.96133C121.589 7.62431 120.852 8.02946 119.924 8.1768C120.587 8.41252 121.095 8.79558 121.449 9.32597C121.803 9.85635 122.112 10.6077 122.377 11.5801L123.46 15.7348ZM118.598 7.55801C119.585 7.55801 120.366 7.28545 120.941 6.74033C121.53 6.19521 121.825 5.41436 121.825 4.39779C121.825 3.35175 121.537 2.56354 120.963 2.03315C120.388 1.48803 119.6 1.21547 118.598 1.21547H113.272V7.55801H118.598Z" fill="#07006F"/>
<path d="M130.89 15.7348C129.211 15.7348 127.966 15.3591 127.156 14.6077C126.345 13.8564 125.94 12.7072 125.94 11.1602V4.81768C125.94 3.27072 126.345 2.12891 127.156 1.39226C127.966 0.640883 129.211 0.265193 130.89 0.265193H136.261V1.21547H130.89C129.579 1.21547 128.614 1.51013 127.995 2.09945C127.391 2.67403 127.089 3.58011 127.089 4.81768V7.51381H135.089V8.46409H127.089V11.1602C127.089 12.3978 127.399 13.3112 128.018 13.9006C128.636 14.4899 129.594 14.7845 130.89 14.7845H136.415V15.7348H130.89Z" fill="#07006F"/>
<path d="M139.639 0.265193H140.789V15.7348H139.639V0.265193Z" fill="#07006F"/>
<path d="M156.746 0.265193V13.8122C156.746 14.4604 156.606 14.9466 156.326 15.2707C156.061 15.5801 155.648 15.7348 155.088 15.7348H154.271L146.204 1.90055V15.7348H145.1V0.265193H146.514L154.89 14.6961H155.044C155.265 14.6961 155.42 14.6298 155.508 14.4972C155.597 14.3499 155.641 14.0921 155.641 13.7238V0.265193H156.746Z" fill="#07006F"/>
</svg>
